HIERARCHY
ROOT root
{
	OFFSET 0.000000 0.000000 0.000000
	CHANNELS 6 Xposition Yposition Zposition Zrotation Yrotation Xrotation
	JOINT lhip
	{
		OFFSET 0.058581 -0.082280 -0.017664
		CHANNELS 3 Zrotation Yrotation Xrotation
		JOINT lknee
		{
			OFFSET 0.043451 -0.386469 0.008037
			CHANNELS 3 Zrotation Yrotation Xrotation
			JOINT lankle
			{
				OFFSET -0.014790 -0.426874 -0.037428
				CHANNELS 3 Zrotation Yrotation Xrotation
				JOINT ltoe
				{
					OFFSET 0.041054 -0.060286 0.122042
					CHANNELS 3 Zrotation Yrotation Xrotation
					End Site
					{
						OFFSET 0.000000 0.000000 0.000000
					}
				}
			}
		}
	}
	JOINT rhip
	{
		OFFSET -0.060310 -0.090513 -0.013543
		CHANNELS 3 Zrotation Yrotation Xrotation
		JOINT rknee
		{
			OFFSET -0.043257 -0.383688 -0.004843
			CHANNELS 3 Zrotation Yrotation Xrotation
			JOINT rankle
			{
				OFFSET 0.019056 -0.420046 -0.034562
				CHANNELS 3 Zrotation Yrotation Xrotation
				JOINT rtoe
				{
					OFFSET -0.034840 -0.062106 0.130323
					CHANNELS 3 Zrotation Yrotation Xrotation
					End Site
					{
						OFFSET 0.000000 0.000000 0.000000
					}
				}
			}
		}
	}
	JOINT lowerback
	{
		OFFSET 0.004439 0.124404 -0.038385
		CHANNELS 3 Zrotation Yrotation Xrotation
		JOINT upperback
		{
			OFFSET 0.004488 0.137956 0.026820
			CHANNELS 3 Zrotation Yrotation Xrotation
			JOINT chest
			{
				OFFSET -0.002265 0.056032 0.002855
				CHANNELS 3 Zrotation Yrotation Xrotation
				JOINT lowerneck
				{
					OFFSET -0.013390 0.211636 -0.033468
					CHANNELS 3 Zrotation Yrotation Xrotation
					JOINT upperneck
					{
						OFFSET 0.010113 0.088937 0.050410
						CHANNELS 3 Zrotation Yrotation Xrotation
						End Site
						{
							OFFSET 0.000000 0.000000 0.000000
						}
					}
				}
				JOINT lclavicle
				{
					OFFSET 0.071702 0.114000 -0.018898
					CHANNELS 3 Zrotation Yrotation Xrotation
					JOINT lshoulder
					{
						OFFSET 0.122921 0.045205 -0.019046
						CHANNELS 3 Zrotation Yrotation Xrotation
						JOINT lelbow
						{
							OFFSET 0.255332 -0.015649 -0.022946
							CHANNELS 3 Zrotation Yrotation Xrotation
							JOINT lwrist
							{
								OFFSET 0.265709 0.012698 -0.007375
								CHANNELS 3 Zrotation Yrotation Xrotation
								End Site
								{
									OFFSET 0.000000 0.000000 0.000000
								}
							}
						}
					}
				}
				JOINT rclavicle
				{
					OFFSET -0.082954 0.112472 -0.023707
					CHANNELS 3 Zrotation Yrotation Xrotation
					JOINT rshoulder
					{
						OFFSET -0.113228 0.046853 -0.008472
						CHANNELS 3 Zrotation Yrotation Xrotation
						JOINT relbow
						{
							OFFSET -0.260127 -0.014369 -0.031269
							CHANNELS 3 Zrotation Yrotation Xrotation
							JOINT rwrist
							{
								OFFSET -0.269108 0.006794 -0.006027
								CHANNELS 3 Zrotation Yrotation Xrotation
								End Site
								{
									OFFSET 0.000000 0.000000 0.000000
								}
							}
						}
					}
				}
			}
		}
	}
}
MOTION
Frames: 14
Frame Time: 0.033333
-1.665733 0.685714 1.012340 -103.843162 5.780178 92.878574 4.116458 -3.628187 -6.461735 -5.536649 -12.861069 15.486751 3.722735 14.124263 -14.154486 0.000000 -0.000000 0.000000 5.313059 -0.495071 -12.921703 0.241091 -8.490107 15.343637 1.996750 -16.858679 -6.157993 0.000000 -0.000000 0.000000 -7.158511 1.056393 13.941507 0.961066 -2.061451 -0.023971 1.672044 -0.291078 4.844075 -1.531263 4.811462 -2.718417 3.903193 -1.248070 -10.845949 -13.730391 -5.930666 -2.534495 -60.220227 -11.133140 14.814504 9.477132 -22.823703 -2.679527 -5.909671 -7.495243 5.496627 16.079575 11.082674 0.794367 63.966617 -0.554253 14.557750 5.300096 37.545244 15.643619 8.496870 6.194247 -15.863302 
-1.673656 0.691319 1.011581 -104.511536 5.023209 92.807140 3.563950 -3.708105 -5.932725 -5.809665 -12.167886 16.050950 3.677758 14.124925 -14.176930 0.000000 -0.000000 0.000000 5.088986 -0.770907 -11.162209 -0.017344 -7.546261 13.353131 1.255457 -16.581427 -6.610221 0.000000 -0.000000 0.000000 -7.357614 1.493669 12.171261 0.840106 -2.221668 1.023359 1.724160 -0.330440 4.361099 -1.816240 4.552229 -1.653495 3.379150 -0.692485 -10.640912 -13.916956 -5.453418 -2.346080 -60.322232 -10.090852 14.606972 9.721979 -22.642573 -3.013050 -5.909332 -7.605690 5.149205 16.341539 10.901853 1.094687 63.707216 0.234056 15.072994 5.363914 35.756016 14.768751 8.732187 6.149494 -15.726833 
-1.680634 0.697383 1.011233 -105.638284 4.411789 92.629028 3.358458 -3.470773 -5.798036 -6.381074 -10.879260 17.490606 3.640686 13.870177 -14.076722 0.000000 -0.000000 0.000000 5.119312 -0.920348 -9.522185 -0.348494 -6.208393 11.785868 0.855004 -16.256114 -7.345589 0.000000 -0.000000 0.000000 -7.242260 2.215167 11.197309 0.638653 -1.909879 1.219544 1.593643 -0.257944 4.150531 -1.379572 5.408001 -1.372401 2.100595 -0.299231 -9.736734 -14.111093 -4.269601 -2.792248 -60.567215 -9.077038 14.622936 9.954193 -22.459544 -3.116451 -6.459347 -7.558265 5.086708 16.447306 10.573764 1.083210 63.816673 0.649003 15.813589 4.983289 34.122455 13.919381 9.196813 6.073330 -15.990674 
-1.687838 0.703685 1.011722 -106.488746 3.896302 92.305411 3.608251 -3.361750 -6.470434 -7.662843 -9.309462 20.635279 3.096619 13.073333 -13.337673 0.000000 -0.000000 0.000000 5.072243 -1.193266 -7.937624 -0.610964 -5.600063 10.622329 0.509116 -15.805075 -7.352437 0.000000 -0.000000 0.000000 -6.935278 2.817486 10.313568 0.340847 -1.557508 1.515168 1.284272 0.133345 4.052493 -1.698865 5.268007 -0.708831 1.668022 -1.344639 -9.619118 -14.237313 -3.444836 -2.815250 -60.642731 -8.698446 14.537008 10.023513 -21.583826 -3.508527 -7.277962 -7.645914 5.356979 16.779546 10.543796 1.227149 64.015716 0.941282 15.804075 4.473151 32.139351 12.879199 10.220959 6.047508 -15.924202 
-1.694788 0.709579 1.012799 -107.402906 3.388816 91.993616 4.451298 -3.033783 -8.917118 -9.966464 -6.741638 26.547324 2.565976 11.509674 -11.527147 0.000000 -0.000000 0.000000 4.685187 -1.529222 -6.504869 -0.439422 -4.714926 9.797095 0.246933 -14.964001 -7.642631 0.000000 -0.000000 0.000000 -6.619091 3.723500 9.921927 0.063332 -1.186663 1.451979 1.147805 0.393731 3.907199 -1.046462 5.824288 0.013454 0.358691 -1.174001 -9.073359 -14.568411 -2.291582 -3.066305 -60.842414 -7.979883 14.630267 10.116267 -21.075572 -3.278504 -8.059405 -7.467632 4.877229 16.719389 10.141921 1.515410 64.319803 1.226554 16.070578 4.178521 30.777678 11.977358 10.547670 5.785497 -16.434369 
-1.701793 0.714478 1.013661 -107.853996 2.987406 91.422280 5.787018 -2.974973 -12.733726 -12.444612 -3.423082 34.756816 0.833732 9.442905 -8.566132 0.000000 -0.000000 0.000000 4.419491 -1.963854 -4.537136 -0.287909 -3.960152 8.490531 -0.341124 -14.306690 -8.049925 0.000000 -0.000000 0.000000 -5.886797 4.858952 9.640896 -0.291147 -1.073326 1.665477 0.980323 0.579969 4.417214 -1.313873 6.287344 1.095281 -0.332058 -2.089837 -10.103729 -14.982960 -2.039753 -3.119917 -60.781716 -7.555666 14.298612 9.857332 -20.671050 -3.487963 -7.682554 -7.397765 4.956446 17.000341 10.495737 2.087538 63.987380 1.370367 15.169095 4.357748 30.379709 10.880388 9.609787 5.322320 -16.658013 
-1.709646 0.718552 1.012033 -107.541504 2.550683 90.970293 6.914331 -3.090106 -17.267847 -14.050511 -1.028386 43.060398 -0.413183 7.692312 -7.992594 0.000000 -0.000000 0.000000 4.131183 -2.908414 -2.947994 -0.300490 -3.628382 7.745785 -1.093181 -14.142810 -9.029125 0.000000 -0.000000 0.000000 -5.220839 6.104169 10.002248 -0.441570 -1.120316 1.335675 0.843896 0.623959 4.613140 -1.303239 6.200680 0.641220 -1.092974 -3.423621 -9.052431 -14.928957 -1.088048 -3.080660 -61.373177 -7.714791 14.616870 9.343442 -20.382763 -2.574546 -8.061073 -7.127125 4.661677 17.043335 10.000500 2.443589 63.945485 1.301560 14.581613 4.747561 29.994976 9.934108 9.038124 5.177247 -17.529043 
-1.717252 0.721415 1.009780 -107.042930 2.107300 90.394399 7.661689 -2.813471 -20.721834 -14.733108 0.243417 47.199676 0.291669 7.201190 -9.334409 0.000000 -0.000000 0.000000 3.697654 -3.950214 -1.392211 -0.363765 -3.146566 7.140301 -1.390095 -14.345248 -9.791156 0.000000 -0.000000 0.000000 -4.853920 7.203160 10.998463 -0.460144 -1.102143 1.010485 1.074168 0.643489 4.827340 -0.972581 6.198376 -0.161301 -2.004567 -3.961732 -8.393793 -15.298428 -0.604164 -3.253518 -61.906350 -7.016037 14.843016 9.439513 -21.279353 -2.052145 -7.383690 -6.748779 4.111347 17.025245 9.788930 1.977574 63.812262 0.388346 14.505927 4.888824 30.363205 9.415400 7.684511 4.828592 -19.007123 
-1.725189 0.722917 1.008753 -106.642801 1.597983 90.234729 8.029749 -2.568942 -23.487185 -13.854407 1.466125 46.181765 1.328066 7.777729 -8.943979 0.000000 -0.000000 0.000000 3.123164 -4.357984 -0.565200 -0.530873 -3.228210 7.054603 -1.179437 -14.585952 -10.290735 0.000000 -0.000000 0.000000 -4.625935 8.001837 11.883438 -0.646025 -0.993801 0.663190 1.135691 0.695548 4.722881 -0.568193 5.760409 -0.713475 -2.277198 -4.829035 -8.285835 -15.233710 -0.269151 -3.493240 -62.564687 -6.283749 15.005767 9.355967 -21.112174 -1.453419 -7.527638 -7.112299 3.424171 17.261158 9.743252 1.914906 64.015261 -0.012256 14.685661 4.238125 30.259419 9.044538 7.650620 4.734081 -19.571508 
-1.734101 0.723280 1.008557 -106.053006 1.216284 90.206132 8.032430 -1.868883 -25.400439 -10.975686 3.220715 41.202315 2.117408 10.341054 -9.691950 0.000000 -0.000000 0.000000 2.798513 -4.699578 -0.031398 -0.899371 -3.376407 7.359405 -0.949789 -15.257538 -11.048279 0.000000 -0.000000 0.000000 -4.388572 8.374072 12.701202 -0.725945 -1.078449 0.186004 1.100085 0.897777 4.892581 -0.211560 5.433937 -1.624114 -2.658830 -5.044663 -8.196252 -14.986026 0.374256 -3.805246 -63.316219 -5.723680 15.221044 9.037124 -20.368250 -0.513844 -7.375558 -7.367945 2.870970 16.851474 9.237519 1.408525 64.825868 0.057414 15.451875 3.720832 30.267920 9.844449 7.324585 4.331164 -18.947413 
-1.743291 0.723403 1.007893 -105.328131 1.181639 90.243017 7.825813 -0.607249 -26.417059 -7.315221 5.889685 33.572733 2.965099 13.238277 -8.165025 0.000000 -0.000000 0.000000 2.874863 -5.008706 0.593068 -1.291303 -3.678096 7.406284 -0.681597 -15.699042 -11.855291 0.000000 -0.000000 0.000000 -3.866982 8.547445 13.479304 -0.862780 -1.233535 -0.205393 1.126088 0.958233 4.976197 0.156091 5.627377 -3.019213 -3.249032 -5.216810 -7.423979 -14.671646 0.771605 -4.167763 -64.112091 -4.734846 15.070359 9.342442 -20.007367 0.144326 -8.883961 -6.775934 2.589556 16.465901 8.873923 0.957618 65.295901 0.057156 16.362642 3.211985 30.597797 10.530199 8.644473 3.982789 -18.483063 
-1.754128 0.722358 1.006022 -104.322254 1.325591 90.495033 7.112531 0.939648 -26.861327 -4.314628 9.254843 25.211778 3.488057 15.344515 -5.043785 0.000000 -0.000000 0.000000 2.813999 -5.488153 1.241977 -1.450778 -3.968750 7.414261 -0.233427 -15.589723 -12.562573 0.000000 -0.000000 0.000000 -3.192670 8.448508 13.755660 -0.901315 -1.447949 -0.172479 1.170170 0.924547 4.817045 0.463661 5.746786 -4.125481 -4.002850 -5.257157 -6.973629 -14.187865 1.096816 -4.601063 -64.991804 -3.553842 15.068995 9.454894 -19.705371 0.928256 -10.706274 -5.799905 2.240522 15.995086 8.508356 0.493047 65.448993 -0.018336 17.291717 2.969823 30.874395 10.194899 10.048341 3.408685 -18.510153 
-1.766824 0.720683 1.002927 -103.343060 1.730296 90.813483 6.072818 3.120834 -27.251246 -2.070558 13.906046 18.403089 4.507273 17.052102 -0.603928 0.000000 -0.000000 0.000000 2.873123 -6.138442 2.001560 -1.460786 -4.388424 7.329906 0.007808 -15.382339 -13.393956 0.000000 -0.000000 0.000000 -2.410558 8.235383 13.580264 -0.860698 -1.551182 0.149502 1.331678 1.087346 4.745089 0.600857 5.881903 -5.249059 -4.735975 -5.155722 -7.079555 -14.090504 0.890177 -4.779336 -65.315550 -2.689890 14.654155 9.247354 -19.467894 1.390457 -12.367848 -4.814864 2.291042 15.639956 8.072134 0.352344 65.565962 -0.230623 17.320145 2.374442 31.369865 9.142460 11.182436 2.954740 -18.051697 
-1.780212 0.717466 0.999417 -102.436928 2.451844 91.254600 5.029162 4.965635 -28.067307 0.037053 18.496046 15.173748 6.781590 19.324365 3.196154 0.000000 -0.000000 0.000000 3.304855 -6.186570 2.332271 -1.656958 -4.996080 7.744207 0.011808 -15.604404 -13.528907 0.000000 -0.000000 0.000000 -1.355287 7.942068 13.863514 -0.735028 -1.455608 -0.436886 1.382636 1.171531 4.750808 0.881027 5.923459 -6.877265 -5.480237 -5.045516 -6.454780 -13.820801 1.387538 -4.969524 -65.745112 -2.052953 14.425097 8.903216 -19.532582 1.984380 -14.063659 -3.789222 2.471916 15.433139 7.066991 0.079864 65.496254 -0.636491 17.402097 1.867780 32.067897 8.046555 12.798874 2.361439 -17.744486 
